# xmcd CD database file
#
# Track frame offsets:
#	150
#	24808
#	48682
#	67882
#	83754
#	102680
#	127625
#	148753
#	172691
#
# Disc length: 2607 seconds
#
# Revision: 1
# Processed by: cddbd v1.5.2PL0 Copyright (c) Steve Scherf et al.
# Submitted via: CDex 1.51
#
DISCID=6a0a2d09
DTITLE=Aziza - Jazzsoetry vol.1
DYEAR=2007
DGENRE=Jazz
TTITLE0=Party People
TTITLE1=J to the A
TTITLE2=Don't Judge
TTITLE3=Jamie
TTITLE4=Yeah
TTITLE5=Do re mi 1-2-3
TTITLE6=Hiz Eyez
TTITLE7=La Costa
TTITLE8=La Costa Remix
EXTD=YEAR: 2007
EXTT0=
EXTT1=
EXTT2=
EXTT3=
EXTT4=
EXTT5=
EXTT6=
EXTT7=
EXTT8=
PLAYORDER=
